<svg xmlns="http://www.w3.org/2000/svg" width="121" height="40" viewBox="0 0 121 40" fill="none">
    <path d="M38.8877 8.48499C38.3048 7.75981 37.6111 7.11686 36.861 6.5903C36.1108 6.06374 35.3044 5.65543 34.4924 5.39861C32.5921 4.8 30.7132 5.05681 29.2 6.12379C27.8993 7.03926 27.164 8.33995 26.7686 9.72471C27.939 9.60369 29.1196 9.54365 30.3011 9.54365C30.5515 9.54365 30.8037 9.54642 31.0577 9.55196C31.1603 9.43464 31.273 9.33118 31.3995 9.24249C31.5409 9.14272 31.8891 8.89792 32.4951 8.89792C32.7363 8.89792 33.0189 8.9358 33.3441 9.03926C34.2439 9.32286 35.2305 10.0286 35.9187 10.8804C38.2346 13.7497 38.5081 18.1072 36.57 21.2416C36.0175 22.1339 35.0383 23.1547 34.0868 23.0993C33.5566 23.0679 32.9515 22.6799 32.4693 22.061C31.2397 20.4841 30.7575 18.2762 30.4443 16.0868C30.4296 15.9778 30.4148 15.8688 30.3991 15.7598C30.364 15.5039 30.315 15.1455 30.2725 14.7242H30.2716L30.3011 14.7233C30.3575 14.7233 30.4129 14.7233 30.4684 14.7242C30.5247 14.7242 30.5801 14.7242 30.6356 14.7252C30.7196 14.7252 30.8055 14.7261 30.8905 14.7289C31.0651 14.7316 31.2406 14.7372 31.4152 14.7436C31.5409 14.7473 31.6647 14.7529 31.7903 14.7603L31.9797 10.9478C31.6988 10.9339 31.418 10.9229 31.139 10.9164C30.8924 10.9099 30.6439 10.9072 30.3972 10.9053H30.3002C29.5353 10.9053 28.775 10.9312 28.0185 10.9829C27.7441 11.0023 27.4716 11.0236 27.1991 11.0494C27.0208 11.066 26.8416 11.0836 26.6651 11.103C26.6023 11.1113 26.5386 11.1178 26.4757 11.1261C26.3778 11.1372 26.2799 11.1492 26.1811 11.1603C26.0822 11.1714 25.9852 11.1852 25.8882 11.1982C25.2804 11.2804 24.6781 11.3764 24.0794 11.491C23.7894 11.5464 23.5002 11.6065 23.2129 11.6693C22.6226 11.0134 21.963 10.4185 21.2369 9.89099C20.4979 9.35427 19.7755 8.87852 19.0697 8.46005C19.6508 7.06882 19.8042 5.57321 19.3589 4.05266C18.9155 2.54226 17.9104 1.38845 16.4517 0.713164C16.3233 0.653118 16.1912 0.597691 16.0554 0.545958C15.7829 0.442494 15.4956 0.353811 15.1945 0.278984C15.043 0.242032 14.8878 0.2097 14.7298 0.179215C14.6503 0.164434 14.57 0.150577 14.4896 0.136721C14.3261 0.110854 14.1607 0.0886836 13.9908 0.0702078C13.9067 0.06097 13.8208 0.0526559 13.733 0.0452656C13.5603 0.030485 13.3829 0.0193995 13.2018 0.0110855C13.0208 0.00461894 12.8351 0 12.6476 0C11.6979 0 10.6531 0.0942263 9.51686 0.284527C9.2896 0.321478 9.05773 0.363972 8.82217 0.410162C7.93349 0.580139 6.99399 0.806467 6.00185 1.0873C2.75289 2.00831 0.110854 3.17783 0 3.22679L1.55196 6.71316C2.51178 6.28637 3.68499 5.82633 4.94319 5.40046C5.06328 5.35982 5.18337 5.32009 5.30439 5.27945C5.36536 5.26005 5.4254 5.23972 5.48822 5.22125C5.60924 5.1806 5.7321 5.1418 5.85496 5.10393C5.97875 5.0642 6.10161 5.02633 6.2254 4.98938C6.34919 4.9515 6.4739 4.91455 6.59769 4.8776C6.72332 4.84065 6.84803 4.80554 6.97367 4.76952C7.22309 4.69838 7.47344 4.63095 7.72471 4.56536C7.85034 4.53303 7.97506 4.50162 8.10069 4.47021C8.22633 4.44065 8.35011 4.41016 8.4739 4.3806C8.59954 4.35104 8.72425 4.3224 8.84896 4.29469C9.03556 4.25404 9.22124 4.21432 9.40323 4.17737C9.4642 4.16536 9.52609 4.15242 9.58706 4.14042C9.70993 4.11732 9.83094 4.09515 9.95104 4.0739C10.1321 4.04157 10.3122 4.01109 10.4896 3.98522C10.6069 3.96582 10.7252 3.95012 10.8416 3.93441C10.8998 3.9261 10.9589 3.91963 11.0162 3.91132C11.1316 3.89746 11.2462 3.8836 11.3598 3.87344C11.4725 3.86143 11.5843 3.85127 11.6961 3.84203C11.8069 3.83372 11.9159 3.8254 12.0231 3.81986C12.2402 3.80785 12.4508 3.80046 12.6559 3.80046C12.9275 3.80046 13.1889 3.81155 13.4356 3.83464C13.5353 3.84388 13.6314 3.85497 13.7256 3.86882C13.9612 3.903 14.1838 3.94919 14.3898 4.00739C14.5127 4.04249 14.6309 4.08406 14.7418 4.13025C14.7787 4.14503 14.8157 4.16166 14.8508 4.17829C15.3118 4.39076 15.564 4.67621 15.697 5.12794C15.8642 5.70162 15.8078 6.26975 15.6194 6.80554C14.9626 6.56536 14.3261 6.37598 13.7099 6.23464C13.5039 6.1866 13.3025 6.14503 13.1021 6.10808C12.2993 5.95843 11.5363 5.89007 10.8148 5.89007C9.64434 5.89007 8.58383 6.07113 7.64711 6.38614C7.52979 6.42587 7.41524 6.46651 7.30254 6.50993C7.13349 6.57552 6.96905 6.6448 6.80739 6.71871C6.69931 6.76951 6.59492 6.8194 6.49238 6.87298C6.3381 6.95242 6.18845 7.03557 6.04249 7.1224C5.9455 7.17968 5.85127 7.23972 5.75889 7.30069C5.57321 7.42171 5.39769 7.55104 5.23048 7.68499C3.20739 9.29977 2.44619 11.7811 3.3358 13.8577C3.66282 14.6208 4.55797 15.9224 6.87575 16.0656C7.0097 16.0739 7.14457 16.0776 7.28314 16.0776C8.02494 16.0776 8.84526 15.9621 9.71178 15.7367C9.86974 15.6942 10.0296 15.6508 10.1884 15.6018C10.4296 15.5298 10.6734 15.4494 10.9192 15.3607C13.1501 14.5589 15.2979 13.2443 16.9016 11.6157C17.552 11.9889 18.2282 12.4249 18.9256 12.9312C16.0416 14.0028 13.3349 15.4864 10.9035 17.3543C5.83834 21.2425 2.42864 26.5192 2.00185 31.1215C1.56305 35.8596 4.31039 39.212 9.17413 39.8716C9.80231 39.9575 10.4249 40 11.0411 40C17.1141 40 22.5654 35.9427 25.2554 29.2406C26.618 25.8467 27.0697 22.1478 26.5247 18.8231C26.3076 17.5012 25.9436 16.2651 25.4402 15.127C25.7783 15.0697 26.1192 15.0189 26.46 14.9746C26.5108 15.4855 26.5709 15.9289 26.618 16.2762C26.8878 18.2522 27.2684 20.2864 28.1062 22.1413C28.4647 22.9376 28.9081 23.6988 29.4614 24.4092C30.6254 25.9021 32.23 26.8139 33.8623 26.9099C33.9621 26.9164 34.06 26.9192 34.1598 26.9192C36.2901 26.9192 38.3861 25.5658 39.8189 23.249C42.5801 18.7815 42.1894 12.5718 38.8896 8.48499H38.8877ZM10.0924 11.5991C9.96305 11.6508 9.83649 11.6998 9.71085 11.745C9.56489 11.7995 9.42171 11.8485 9.28314 11.8919C9.07621 11.9584 8.87667 12.0157 8.6873 12.0637C8.65958 12.0702 8.63279 12.0776 8.60508 12.0841C8.53025 12.1016 8.4582 12.1192 8.38522 12.1349C8.37875 12.1358 8.37136 12.1376 8.36305 12.1386C8.2993 12.1524 8.23649 12.1663 8.17459 12.1764C8.16628 12.1774 8.15704 12.1792 8.14873 12.182C8.08868 12.1931 8.03141 12.2023 7.97413 12.2106C7.96582 12.2115 7.95658 12.2134 7.94827 12.2143C7.89099 12.2236 7.83649 12.2309 7.78198 12.2374C7.77552 12.2383 7.76813 12.2402 7.76166 12.2402C7.70623 12.2467 7.64988 12.254 7.5963 12.2577C7.59353 12.2577 7.59076 12.2587 7.58799 12.2587C7.47252 12.2679 7.36351 12.2734 7.26466 12.2734C7.21663 12.2734 7.17044 12.2725 7.12702 12.2697H7.12609C7.06051 12.267 7.00046 12.2605 6.94596 12.2522C6.92656 12.2494 6.90901 12.2457 6.89238 12.243C6.8582 12.2365 6.82679 12.2282 6.79815 12.218C6.69469 11.7533 7.00416 11.1492 7.60924 10.667C8.33164 10.0905 9.41524 9.70346 10.8092 9.70346C11.4605 9.70346 12.1801 9.78753 12.9626 9.97783C11.9935 10.7002 10.9986 11.2305 10.0896 11.5982L10.0924 11.5991ZM21.7145 27.818C20.6485 30.473 18.9533 32.7455 16.9441 34.2162C16.6651 34.4203 16.3797 34.6097 16.0924 34.7834C15.8624 34.9219 15.6286 35.0503 15.3931 35.1677C15.309 35.2102 15.224 35.2508 15.1399 35.2905C14.9709 35.37 14.7991 35.4448 14.6272 35.5122C14.5404 35.5473 14.4545 35.5806 14.3667 35.612C14.2901 35.6397 14.2125 35.6665 14.1349 35.6924C13.891 35.7755 13.6443 35.8476 13.3949 35.9095C13.2711 35.9409 13.1455 35.9677 13.0199 35.9935C12.8859 36.0212 12.751 36.0453 12.6162 36.0674C12.5062 36.085 12.3945 36.1016 12.2827 36.1155C11.8928 36.1635 11.4965 36.1875 11.0956 36.1875C10.6337 36.1875 10.1635 36.1552 9.68776 36.0905C6.82125 35.7007 5.55011 34.1903 5.80231 31.4725C6.12933 27.9483 9.04388 23.5935 13.2277 20.3797C15.7386 18.4527 18.5866 16.9903 21.636 16.036C22.2688 17.2259 22.594 18.4351 22.7593 19.4393C23.1926 22.0859 22.8222 25.0614 21.7155 27.8189L21.7145 27.818Z" fill="white"/>
    <path d="M47.4512 25.3491V14.0992H50.3759V22.671H57.0586V25.3481H47.4512V25.3491Z" fill="white"/>
    <path d="M58.1385 25.3491V14.0992H61.0189V25.3491H58.1385Z" fill="white"/>
    <path d="M65.732 25.3491L61.6036 14.0992H64.7307L67.599 22.8742H67.2166L70.0286 14.0992H73.0771L69.0494 25.3491H65.7311H65.732Z" fill="white"/>
    <path d="M73.6628 25.3491V14.0992H76.5431V15.5726C76.933 14.913 77.4226 14.4438 78.011 14.1666C78.5995 13.8895 79.2351 13.75 79.9177 13.75C80.1579 13.75 80.3787 13.7611 80.5819 13.7842C80.7843 13.8064 80.9792 13.8405 81.1667 13.8858L80.8064 16.8558C80.5736 16.7736 80.3316 16.7117 80.0813 16.6701C79.83 16.6294 79.5806 16.6082 79.333 16.6082C78.5228 16.6082 77.8558 16.8502 77.3302 17.3343C76.8055 17.8184 76.5431 18.4946 76.5431 19.3648V25.35H73.6628V25.3491Z" fill="white"/>
    <path d="M86.2965 25.6862C85.1944 25.6862 84.217 25.4313 83.3662 24.9213C82.5145 24.4114 81.8457 23.7066 81.3579 22.8068C80.8702 21.907 80.6263 20.8798 80.6263 19.7241C80.6263 18.8539 80.7648 18.0558 81.0429 17.3278C81.32 16.6008 81.7127 15.9708 82.2189 15.4377C82.7251 14.9056 83.3247 14.4927 84.0184 14.2008C84.7122 13.908 85.4715 13.762 86.2965 13.762C87.3838 13.762 88.2993 13.9948 89.0411 14.4595C89.7838 14.9241 90.3381 15.5283 90.7057 16.271L90.3011 16.8899V14.1001H92.8323V25.35H90.3011V22.5601L90.7057 23.1791C90.3381 23.9218 89.7829 24.525 89.0411 24.9906C88.2983 25.4553 87.3838 25.6881 86.2965 25.6881V25.6862ZM86.7242 23.1662C87.3468 23.1662 87.9011 23.0257 88.3889 22.744C88.8766 22.4631 89.2628 22.065 89.5473 21.5514C89.8318 21.0377 89.975 20.428 89.975 19.7232C89.975 19.0183 89.8327 18.4068 89.5473 17.8895C89.2618 17.3722 88.8757 16.9749 88.3889 16.6969C87.9011 16.4197 87.3459 16.2802 86.7242 16.2802C86.1025 16.2802 85.5445 16.4188 85.054 16.6969C84.5625 16.974 84.1764 17.3722 83.8956 17.8895C83.6147 18.4068 83.4734 19.0183 83.4734 19.7232C83.4734 20.428 83.6138 21.0377 83.8956 21.5514C84.1764 22.065 84.5625 22.4622 85.054 22.744C85.5454 23.0248 86.1016 23.1662 86.7242 23.1662Z" fill="white"/>
    <path d="M94.8018 25.3491V14.0992H97.6822V25.3491H94.8018Z" fill="white"/>
    <path d="M98.9866 25.3491V23.3463L104.522 16.6525H99.1224V14.0992H108.078V16.102L102.711 22.7957H108.167V25.3491H98.9875H98.9866Z" fill="white"/>
    <path d="M114.68 25.6863C113.48 25.6863 112.417 25.4147 111.491 24.8705C110.564 24.3264 109.839 23.6031 109.314 22.6996C108.79 21.7962 108.526 20.804 108.526 19.7241C108.526 18.9297 108.676 18.1712 108.976 17.4516C109.277 16.732 109.702 16.0964 110.253 15.5449C110.805 14.9934 111.455 14.5592 112.205 14.2396C112.955 13.9209 113.78 13.7611 114.68 13.7611C115.872 13.7611 116.931 14.0308 117.858 14.5712C118.784 15.1107 119.511 15.835 120.04 16.7421C120.568 17.6493 120.833 18.6433 120.833 19.7232C120.833 20.5186 120.682 21.2742 120.378 21.9902C120.074 22.7061 119.648 23.3417 119.101 23.8969C118.553 24.4521 117.905 24.889 117.155 25.2077C116.405 25.5264 115.58 25.6863 114.68 25.6863ZM114.68 23.1662C115.31 23.1662 115.874 23.0257 116.373 22.744C116.872 22.4632 117.264 22.065 117.548 21.5514C117.833 21.0378 117.976 20.4281 117.976 19.7232C117.976 19.0184 117.834 18.4068 117.548 17.8895C117.263 17.3722 116.873 16.9749 116.379 16.6969C115.884 16.4197 115.317 16.2802 114.68 16.2802C114.042 16.2802 113.474 16.4188 112.975 16.6969C112.477 16.974 112.087 17.3722 111.806 17.8895C111.525 18.4068 111.384 19.0184 111.384 19.7232C111.384 20.4281 111.526 21.0378 111.811 21.5514C112.096 22.065 112.487 22.4622 112.981 22.744C113.476 23.0248 114.042 23.1662 114.68 23.1662Z" fill="white"/>
</svg>