<svg xmlns="http://www.w3.org/2000/svg" width="145" height="48" viewBox="0 0 145 48" fill="none">
  <path d="M46.6653 10.182C45.9658 9.31178 45.1333 8.54023 44.2332 7.90836C43.333 7.27649 42.3653 6.78651 41.3908 6.47834C39.1106 5.76 36.8558 6.06817 35.04 7.34854C33.4792 8.44711 32.5968 10.0079 32.1223 11.6697C33.5268 11.5244 34.9435 11.4524 36.3614 11.4524C36.6618 11.4524 36.9644 11.4557 37.2693 11.4624C37.3923 11.3216 37.5276 11.1974 37.6794 11.091C37.849 10.9713 38.267 10.6775 38.9942 10.6775C39.2835 10.6775 39.6227 10.723 40.0129 10.8471C41.0926 11.1874 42.2766 12.0344 43.1024 13.0564C45.8816 16.4996 46.2097 21.7286 43.884 25.4899C43.2211 26.5607 42.046 27.7857 40.9042 27.7192C40.2679 27.6815 39.5418 27.2159 38.9631 26.4732C37.4877 24.5809 36.909 21.9315 36.5332 19.3042C36.5155 19.1734 36.4977 19.0426 36.4789 18.9118C36.4368 18.6047 36.378 18.1746 36.327 17.6691H36.3259L36.3614 17.668C36.429 17.668 36.4955 17.668 36.562 17.6691C36.6296 17.6691 36.6962 17.6691 36.7627 17.6702C36.8635 17.6702 36.9666 17.6713 37.0686 17.6746C37.2781 17.678 37.4888 17.6846 37.6983 17.6924C37.849 17.6968 37.9976 17.7035 38.1483 17.7123L38.3756 13.1374C38.0386 13.1207 37.7016 13.1074 37.3668 13.0997C37.0708 13.0919 36.7726 13.0886 36.4767 13.0864H36.3603C35.4424 13.0864 34.5301 13.1174 33.6222 13.1795C33.2929 13.2028 32.9659 13.2283 32.6389 13.2593C32.4249 13.2793 32.2099 13.3003 31.9981 13.3236C31.9228 13.3336 31.8463 13.3413 31.7709 13.3513C31.6534 13.3646 31.5359 13.379 31.4173 13.3923C31.2987 13.4056 31.1823 13.4223 31.0659 13.4378C30.3364 13.5364 29.6137 13.6517 28.8953 13.7892C28.5472 13.8557 28.2003 13.9278 27.8555 14.0031C27.1472 13.2161 26.3556 12.5022 25.4843 11.8692C24.5975 11.2251 23.7306 10.6542 22.8837 10.1521C23.581 8.48259 23.765 6.68785 23.2307 4.86319C22.6986 3.05072 21.4925 1.66614 19.7421 0.855797C19.588 0.783741 19.4295 0.717229 19.2665 0.65515C18.9395 0.530993 18.5947 0.424573 18.2333 0.334781C18.0515 0.290439 17.8653 0.25164 17.6757 0.215058C17.5804 0.197321 17.484 0.180693 17.3875 0.164065C17.1913 0.133025 16.9929 0.10642 16.7889 0.0842494C16.688 0.073164 16.5849 0.0631871 16.4796 0.0543187C16.2723 0.036582 16.0595 0.0232794 15.8422 0.0133025C15.6249 0.00554273 15.4021 0 15.1771 0C14.0375 0 12.7837 0.113072 11.4202 0.341432C11.1475 0.385774 10.8693 0.436767 10.5866 0.492194C9.52018 0.696166 8.39279 0.96776 7.20222 1.30476C3.30346 2.40998 0.133025 3.8134 0 3.87215L1.86235 8.0558C3.01413 7.54365 4.42198 6.99159 5.93182 6.48055C6.07593 6.43178 6.22004 6.38411 6.36526 6.33534C6.43843 6.31206 6.51048 6.28767 6.58586 6.2655C6.73108 6.21672 6.87852 6.17016 7.02596 6.12471C7.1745 6.07704 7.32194 6.03159 7.47048 5.98725C7.61903 5.9418 7.76868 5.89746 7.91723 5.85312C8.06799 5.80878 8.21764 5.76665 8.3684 5.72342C8.66771 5.63806 8.96813 5.55714 9.26965 5.47843C9.42041 5.43963 9.57007 5.40194 9.72083 5.36425C9.87159 5.32878 10.0201 5.29219 10.1687 5.25672C10.3194 5.22125 10.4691 5.18688 10.6187 5.15363C10.8427 5.10485 11.0655 5.05718 11.2839 5.01284C11.357 4.99843 11.4313 4.98291 11.5045 4.9685C11.6519 4.94079 11.7971 4.91418 11.9412 4.88868C12.1585 4.84988 12.3747 4.8133 12.5875 4.78226C12.7283 4.75898 12.8702 4.74014 13.0099 4.72129C13.0797 4.71132 13.1507 4.70356 13.2194 4.69358C13.358 4.67695 13.4954 4.66032 13.6318 4.64813C13.767 4.63372 13.9012 4.62152 14.0353 4.61044C14.1683 4.60046 14.2991 4.59049 14.4277 4.58383C14.6882 4.56942 14.941 4.56055 15.1871 4.56055C15.513 4.56055 15.8267 4.57386 16.1227 4.60157C16.2424 4.61266 16.3577 4.62596 16.4708 4.64259C16.7534 4.6836 17.0206 4.73903 17.2678 4.80887C17.4152 4.85099 17.5571 4.90088 17.6902 4.95631C17.7345 4.97404 17.7788 4.994 17.821 5.01395C18.3741 5.26891 18.6768 5.61146 18.8364 6.15353C19.037 6.84194 18.9694 7.52369 18.7433 8.16665C17.9551 7.87843 17.1913 7.65118 16.4519 7.48157C16.2047 7.42393 15.963 7.37404 15.7225 7.3297C14.7592 7.15012 13.8435 7.06808 12.9777 7.06808C11.5732 7.06808 10.3006 7.28536 9.17653 7.66337C9.03575 7.71104 8.89829 7.75981 8.76305 7.81192C8.56018 7.89062 8.36286 7.97376 8.16887 8.06245C8.03917 8.12342 7.9139 8.18328 7.79085 8.24757C7.60572 8.34291 7.42614 8.44268 7.25099 8.54688C7.13459 8.61561 7.02152 8.68767 6.91067 8.76083C6.68785 8.90605 6.47723 9.06125 6.27658 9.22199C3.84887 11.1597 2.93543 14.1373 4.00295 16.6293C4.39538 17.5449 5.46956 19.1069 8.2509 19.2787C8.41164 19.2887 8.57348 19.2931 8.73977 19.2931C9.62993 19.2931 10.6143 19.1546 11.6541 18.8841C11.8437 18.8331 12.0355 18.781 12.2261 18.7222C12.5155 18.6358 12.8081 18.5393 13.103 18.4329C15.7801 17.4707 18.3575 15.8932 20.2819 13.9388C21.0623 14.3867 21.8738 14.9099 22.7108 15.5174C19.2499 16.8033 16.0018 18.5836 13.0842 20.8251C7.006 25.491 2.91436 31.823 2.40222 37.3458C1.87566 43.0315 5.17247 47.0544 11.009 47.8459C11.7628 47.949 12.5099 48 13.2493 48C20.5369 48 27.0784 43.1313 30.3065 35.0888C31.9416 31.016 32.4837 26.5774 31.8296 22.5877C31.5691 21.0014 31.1324 19.5182 30.5282 18.1524C30.9339 18.0837 31.343 18.0227 31.752 17.9695C31.813 18.5825 31.8851 19.1146 31.9416 19.5315C32.2653 21.9026 32.722 24.3437 33.7275 26.5696C34.1576 27.5252 34.6897 28.4386 35.3537 29.2911C36.7505 31.0825 38.676 32.1766 40.6348 32.2919C40.7545 32.2997 40.872 32.303 40.9918 32.303C43.5481 32.303 46.0634 30.679 47.7827 27.8988C51.0962 22.5378 50.6272 15.0862 46.6675 10.182H46.6653ZM12.1109 13.9189C11.9557 13.981 11.8038 14.0397 11.653 14.094C11.4779 14.1594 11.306 14.2182 11.1398 14.2703C10.8915 14.3501 10.652 14.4188 10.4248 14.4765C10.3915 14.4843 10.3594 14.4931 10.3261 14.5009C10.2363 14.5219 10.1498 14.543 10.0623 14.5618C10.0545 14.563 10.0456 14.5652 10.0357 14.5663C9.95917 14.5829 9.88378 14.5995 9.80951 14.6117C9.79953 14.6128 9.78845 14.6151 9.77847 14.6184C9.70642 14.6317 9.63769 14.6428 9.56896 14.6528C9.55898 14.6539 9.5479 14.6561 9.53792 14.6572C9.46919 14.6683 9.40378 14.6771 9.33838 14.6849C9.33062 14.686 9.32175 14.6882 9.31399 14.6882C9.24748 14.696 9.17986 14.7049 9.11556 14.7093C9.11224 14.7093 9.10891 14.7104 9.10559 14.7104C8.96702 14.7215 8.83621 14.7281 8.7176 14.7281C8.65995 14.7281 8.60452 14.727 8.55242 14.7237H8.55131C8.47261 14.7204 8.40055 14.7126 8.33515 14.7026C8.31187 14.6993 8.29081 14.6949 8.27085 14.6915C8.22984 14.6838 8.19215 14.6738 8.15778 14.6616C8.03362 14.104 8.40499 13.379 9.13108 12.8004C9.99796 12.1086 11.2983 11.6442 12.9711 11.6442C13.7526 11.6442 14.6162 11.745 15.5551 11.9734C14.3922 12.8403 13.1983 13.4766 12.1075 13.9178L12.1109 13.9189ZM26.0575 33.3816C24.7782 36.5676 22.744 39.2946 20.3329 41.0594C19.9981 41.3044 19.6556 41.5316 19.3108 41.74C19.0348 41.9063 18.7544 42.0604 18.4717 42.2012C18.3708 42.2522 18.2688 42.301 18.1679 42.3486C17.9651 42.444 17.7589 42.5338 17.5527 42.6147C17.4485 42.6568 17.3454 42.6967 17.2401 42.7344C17.1481 42.7677 17.055 42.7998 16.9618 42.8309C16.6692 42.9306 16.3732 43.0171 16.0739 43.0914C15.9254 43.1291 15.7746 43.1612 15.6238 43.1922C15.4631 43.2255 15.3012 43.2543 15.1394 43.2809C15.0075 43.302 14.8733 43.3219 14.7392 43.3386C14.2714 43.3962 13.7958 43.425 13.3147 43.425C12.7605 43.425 12.1962 43.3862 11.6253 43.3086C8.18549 42.8408 6.66014 41.0284 6.96277 37.767C7.35519 33.5379 10.8527 28.3122 15.8733 24.4556C18.8863 22.1432 22.3039 20.3884 25.9632 19.2432C26.7226 20.671 27.1128 22.1221 27.3112 23.3271C27.8311 26.5031 27.3866 30.0737 26.0586 33.3827L26.0575 33.3816Z" fill="black"/>
  <path d="M56.9415 30.4189V16.919H60.4512V27.2052H68.4704V30.4178H56.9415V30.4189Z" fill="black"/>
  <path d="M69.7662 30.4189V16.919H73.2227V30.4189H69.7662Z" fill="black"/>
  <path d="M78.8786 30.4189L73.9246 16.919H77.677L81.119 27.4491H80.6601L84.0345 16.919H87.6927L82.8594 30.4189H78.8775H78.8786Z" fill="black"/>
  <path d="M88.3954 30.4189V16.919H91.8518V18.6872C92.3196 17.8957 92.9072 17.3325 93.6133 17C94.3194 16.6674 95.0821 16.5 95.9013 16.5C96.1896 16.5 96.4545 16.5133 96.6984 16.541C96.9412 16.5676 97.1751 16.6086 97.4001 16.663L96.9678 20.2269C96.6884 20.1283 96.398 20.054 96.0976 20.0041C95.796 19.9553 95.4967 19.9298 95.1996 19.9298C94.2274 19.9298 93.4271 20.2203 92.7963 20.8012C92.1666 21.382 91.8518 22.1935 91.8518 23.2377V30.42H88.3954V30.4189Z" fill="black"/>
  <path d="M103.556 30.8235C102.233 30.8235 101.06 30.5175 100.04 29.9056C99.0174 29.2937 98.2149 28.4479 97.6296 27.3682C97.0442 26.2884 96.7516 25.0557 96.7516 23.669C96.7516 22.6247 96.9179 21.6669 97.2515 20.7934C97.5841 19.921 98.0552 19.1649 98.6627 18.5253C99.2702 17.8868 99.9896 17.3913 100.822 17.041C101.655 16.6896 102.566 16.5144 103.556 16.5144C104.861 16.5144 105.959 16.7938 106.849 17.3514C107.741 17.909 108.406 18.6339 108.847 19.5252L108.361 20.2679V16.9201H111.399V30.42H108.361V27.0722L108.847 27.8149C108.406 28.7062 107.739 29.4301 106.849 29.9888C105.958 30.5464 104.861 30.8257 103.556 30.8257V30.8235ZM104.069 27.7994C104.816 27.7994 105.481 27.6309 106.067 27.2928C106.652 26.9558 107.115 26.478 107.457 25.8617C107.798 25.2453 107.97 24.5137 107.97 23.6678C107.97 22.822 107.799 22.0882 107.457 21.4674C107.114 20.8466 106.651 20.3699 106.067 20.0363C105.481 19.7037 104.815 19.5363 104.069 19.5363C103.323 19.5363 102.653 19.7026 102.065 20.0363C101.475 20.3688 101.012 20.8466 100.675 21.4674C100.338 22.0882 100.168 22.822 100.168 23.6678C100.168 24.5137 100.337 25.2453 100.675 25.8617C101.012 26.478 101.475 26.9547 102.065 27.2928C102.655 27.6298 103.322 27.7994 104.069 27.7994Z" fill="black"/>
  <path d="M113.762 30.4189V16.919H117.219V30.4189H113.762Z" fill="black"/>
  <path d="M118.784 30.4189V28.0155L125.426 19.983H118.947V16.919H129.693V19.3223L123.254 27.3548H129.801V30.4189H118.785H118.784Z" fill="black"/>
  <path d="M137.616 30.8235C136.176 30.8235 134.9 30.4976 133.789 29.8447C132.677 29.1917 131.807 28.3237 131.178 27.2396C130.548 26.1554 130.232 24.9649 130.232 23.669C130.232 22.7156 130.412 21.8055 130.772 20.9419C131.132 20.0784 131.643 19.3157 132.304 18.6539C132.966 17.9921 133.746 17.4711 134.646 17.0875C135.546 16.7051 136.536 16.5133 137.616 16.5133C139.047 16.5133 140.317 16.837 141.429 17.4855C142.541 18.1329 143.414 19.002 144.048 20.0906C144.682 21.1792 145 22.372 145 23.6679C145 24.6223 144.818 25.5291 144.453 26.3882C144.089 27.2473 143.578 28.01 142.921 28.6763C142.264 29.3425 141.486 29.8668 140.586 30.2493C139.686 30.6317 138.696 30.8235 137.616 30.8235ZM137.616 27.7994C138.372 27.7994 139.049 27.6309 139.648 27.2928C140.247 26.9558 140.717 26.478 141.058 25.8617C141.399 25.2453 141.571 24.5137 141.571 23.6679C141.571 22.822 141.401 22.0882 141.058 21.4674C140.715 20.8466 140.248 20.3699 139.655 20.0363C139.06 19.7037 138.381 19.5363 137.616 19.5363C136.851 19.5363 136.169 19.7026 135.571 20.0363C134.972 20.3688 134.504 20.8466 134.167 21.4674C133.83 22.0882 133.661 22.822 133.661 23.6679C133.661 24.5137 133.831 25.2453 134.174 25.8617C134.515 26.478 134.984 26.9547 135.577 27.2928C136.172 27.6298 136.851 27.7994 137.616 27.7994Z" fill="black"/>
</svg>